<?xml version="1.0" encoding="UTF-8"?> <svg xmlns="http://www.w3.org/2000/svg" xmlns:xlink="http://www.w3.org/1999/xlink" width="142" height="66" viewBox="0 0 142 66"><defs><path id="qemepqzbma" d="M0 0L142 0 142 66 0 66z"></path></defs><g fill="none" fill-rule="evenodd"><g><g transform="translate(-80.000000, -59.000000) translate(80.000000, 59.000000)"><mask id="4dr9mylpkb" fill="#fff"><use xlink:href="#qemepqzbma"></use></mask><path fill="#42215B" d="M25.052 38.648c5.716 0 10.668 3.263 13.123 8.031l6.644-3.987c-6.41-10.771-20.302-14.284-31.026-7.848C3.065 41.28-.434 55.228 5.975 66l6.9-4.14c-1.632-2.385-2.588-5.272-2.588-8.384 0-8.187 6.61-14.828 14.765-14.828z" mask="url(#4dr9mylpkb)"></path><path fill="#05AEF0" d="M27.549 23.805c-7.682 2.747-16.127-1.28-18.864-8.993-1.04-2.932-1.103-5.974-.363-8.77L.44 4.466C-2 16.773 5.958 28.733 18.215 31.182c12.253 2.45 24.166-5.54 26.604-17.847l-7.59-1.516c-.72 5.318-4.295 10.06-9.68 11.986zM138.03 32.46l-.817 1.12c-.893 1.223-2.046 2.21-3.434 2.93-1.376.72-2.891 1.085-4.504 1.085-1.74 0-3.381-.442-4.88-1.315-1.502-.873-2.705-2.082-3.576-3.59-.87-1.506-1.31-3.168-1.31-4.939 0-1.72.442-3.372 1.315-4.907.868-1.527 2.067-2.737 3.564-3.598 1.502-.863 3.146-1.3 4.887-1.3 1.093 0 2.138.16 3.106.477.969.317 1.89.792 2.737 1.415.852.627 1.554 1.323 2.085 2.072l.81 1.138 3.935-2.783-.809-1.152c-1.323-1.885-3.045-3.383-5.115-4.451-2.066-1.065-4.337-1.604-6.749-1.604-1.947 0-3.835.37-5.611 1.103-1.776.732-3.369 1.798-4.733 3.166-1.36 1.368-2.428 2.971-3.169 4.767-.743 1.791-1.12 3.696-1.12 5.657 0 2.68.664 5.173 1.974 7.412 1.3 2.23 3.081 4.026 5.293 5.336 2.222 1.317 4.7 1.983 7.366 1.983 2.417 0 4.698-.554 6.778-1.647 2.072-1.09 3.792-2.565 5.112-4.39l.835-1.151-3.97-2.834zm-30.16 1.12c-.891 1.223-2.046 2.21-3.433 2.93-1.376.72-2.891 1.085-4.504 1.085-1.74 0-3.382-.442-4.88-1.315-1.502-.873-2.706-2.082-3.576-3.59-.87-1.506-1.31-3.168-1.31-4.939 0-1.72.442-3.372 1.315-4.907.868-1.526 2.067-2.736 3.564-3.598 1.502-.863 3.146-1.3 4.887-1.3 1.093 0 2.139.16 3.106.477.969.317 1.89.792 2.737 1.415.852.627 1.554 1.323 2.084 2.072l.81 1.138 3.937-2.783-.809-1.152c-1.324-1.885-3.046-3.383-5.116-4.451-2.066-1.065-4.337-1.604-6.75-1.604-1.946 0-3.834.37-5.61 1.103-1.776.732-3.369 1.798-4.733 3.166-1.36 1.368-2.427 2.971-3.17 4.767-.742 1.791-1.12 3.696-1.12 5.657 0 2.679.665 5.173 1.974 7.412 1.301 2.23 3.082 4.026 5.294 5.336 2.222 1.317 4.7 1.983 7.366 1.983 2.417 0 4.698-.554 6.779-1.647 2.07-1.09 3.79-2.565 5.111-4.39l.835-1.151-3.97-2.834-.818 1.12zM68.1 27.66H82.12l-.137 1.534c-.22 2.458-1.009 4.73-2.346 6.752-1.334 2.016-3.083 3.625-5.2 4.784-2.124 1.163-4.493 1.752-7.043 1.752-2.666 0-5.144-.666-7.365-1.983-2.21-1.31-3.993-3.106-5.295-5.336-1.309-2.242-1.973-4.735-1.973-7.412 0-1.958.378-3.863 1.12-5.657.743-1.796 1.81-3.399 3.172-4.767 1.36-1.367 2.952-2.432 4.73-3.164 1.775-.733 3.663-1.105 5.611-1.105 2.413 0 4.684.54 6.749 1.604 2.07 1.068 3.791 2.565 5.116 4.45l.81 1.153-3.937 2.783-.81-1.138c-.535-.752-1.236-1.45-2.085-2.072-.847-.622-1.767-1.098-2.736-1.415-.968-.317-2.013-.477-3.107-.477-1.742 0-3.385.437-4.888 1.3-1.495.86-2.694 2.071-3.564 3.598-.87 1.53-1.313 3.182-1.313 4.907 0 1.773.441 3.434 1.31 4.939.868 1.506 2.071 2.714 3.575 3.59 1.498.873 3.14 1.315 4.88 1.315 2.233 0 4.152-.627 5.868-1.92 1.178-.887 2.08-1.914 2.74-3.127h-5.446l-2.458-4.888z" mask="url(#4dr9mylpkb)"></path><path fill="#A8CD3A" d="M32.21 11.531c.209-1.183.212-2.422-.041-3.67-.116-.572-.287-1.115-.493-1.638l-.325-.704c-.388-.837-.95-1.653-1.67-2.421-.718-.769-1.536-1.406-2.43-1.898-.892-.49-1.89-.84-2.966-1.042-.298-.057-.596-.094-.893-.123-.903-.075-1.83-.031-2.763.159-5.295 1.084-8.712 6.272-7.633 11.588 1.079 5.317 6.245 8.749 11.54 7.666.328-.068.648-.15.96-.249l.074-.026c.204-.065.401-.143.599-.221.212-.087.422-.179.632-.283 1.321-.655 2.396-1.498 3.268-2.568l-5.4-1.016-1.474-5.25 9.015 1.696" mask="url(#4dr9mylpkb)"></path></g></g></g></svg> 